<svg xmlns="http://www.w3.org/2000/svg" viewBox="0 0 300 350" width="300" height="350">
  <!-- Shield background -->
  <path d="M 150 20 L 220 60 L 220 180 Q 150 240 150 240 Q 150 240 80 180 L 80 60 Z" fill="#1a3a52" stroke="#2d5a7b" stroke-width="2"/>
  
  <!-- Left section (blue) with rose -->
  <rect x="85" y="65" width="60" height="105" fill="#2b5aa6"/>
  <circle cx="115" cy="110" r="15" fill="#FFD700"/>
  <circle cx="110" cy="105" r="8" fill="#FFA500"/>
  <circle cx="120" cy="105" r="8" fill="#FFA500"/>
  
  <!-- Right section (red) with lion -->
  <rect x="150" y="65" width="65" height="105" fill="#c41e3a"/>
  <circle cx="185" cy="115" r="12" fill="#FFD700"/>
  <path d="M 180 110 L 190 110 L 190 125 Q 185 128 180 125 Z" fill="#FFA500"/>
  
  <!-- Hearts at top -->
  <path d="M 140 35 Q 140 30 145 30 Q 150 30 150 35 Q 150 30 155 30 Q 160 30 160 35 Q 160 42 150 50 Q 140 42 140 35" fill="#DC143C"/>
  <path d="M 115 40 Q 115 36 119 36 Q 123 36 123 40 Q 123 36 127 36 Q 131 36 131 40 Q 131 46 123 52 Q 115 46 115 40" fill="#DC143C"/>
  <path d="M 170 40 Q 170 36 174 36 Q 178 36 178 40 Q 178 36 182 36 Q 186 36 186 40 Q 186 46 178 52 Q 170 46 170 40" fill="#DC143C"/>
  
  <!-- Banner -->
  <rect x="100" y="190" width="100" height="25" fill="#FFD700" stroke="#2d5a7b" stroke-width="2" rx="3"/>
  <text x="150" y="210" font-family="Georgia, serif" font-size="12" font-weight="bold" text-anchor="middle" fill="#1a3a52">StrathmArt</text>
</svg>
